<svg width="32" height="25" viewBox="0 0 32 25" fill="none" xmlns="http://www.w3.org/2000/svg" style="margin-right: 5px;margin-top: -5px;">
<path d="M29.7143 15.1786V17.8571C29.7143 19.4289 28.9524 20.7589 27.4286 21.8471V24.5536C27.4286 24.6838 27.375 24.7907 27.2679 24.8744C27.1607 24.9581 27.0238 25 26.8571 25H25.7143C25.5476 25 25.4107 24.9581 25.3036 24.8744C25.1964 24.7907 25.1429 24.6838 25.1429 24.5536V22.9074C24.3929 23.112 23.631 23.2143 22.8571 23.2143H9.14286C8.36905 23.2143 7.60714 23.112 6.85714 22.9074V24.442C6.85714 24.6001 6.8006 24.7326 6.6875 24.8396C6.57441 24.9465 6.44048 25 6.28571 25H5.14286C4.9881 25 4.85417 24.9465 4.74107 24.8396C4.62798 24.7326 4.57143 24.6001 4.57143 24.442V21.8471C3.04762 20.7589 2.28571 19.4289 2.28571 17.8571V15.1786H29.7143ZM12.5714 9.375C12.5714 9.50521 12.5179 9.61217 12.4107 9.69587C12.3036 9.77958 12.1667 9.82143 12 9.82143C11.8333 9.82143 11.6964 9.77958 11.5893 9.69587C11.4821 9.61217 11.4286 9.50521 11.4286 9.375C11.4286 9.24479 11.4821 9.13783 11.5893 9.05413C11.6964 8.97042 11.8333 8.92857 12 8.92857C12.1667 8.92857 12.3036 8.97042 12.4107 9.05413C12.5179 9.13783 12.5714 9.24479 12.5714 9.375ZM13.7143 8.48214C13.7143 8.61235 13.6607 8.71931 13.5536 8.80301C13.4464 8.88672 13.3095 8.92857 13.1429 8.92857C12.9762 8.92857 12.8393 8.88672 12.7321 8.80301C12.625 8.71931 12.5714 8.61235 12.5714 8.48214C12.5714 8.35193 12.625 8.24498 12.7321 8.16127C12.8393 8.07757 12.9762 8.03571 13.1429 8.03571C13.3095 8.03571 13.4464 8.07757 13.5536 8.16127C13.6607 8.24498 13.7143 8.35193 13.7143 8.48214ZM12.5714 7.58929C12.5714 7.71949 12.5179 7.82645 12.4107 7.91016C12.3036 7.99386 12.1667 8.03571 12 8.03571C11.8333 8.03571 11.6964 7.99386 11.5893 7.91016C11.4821 7.82645 11.4286 7.71949 11.4286 7.58929C11.4286 7.45908 11.4821 7.35212 11.5893 7.26842C11.6964 7.18471 11.8333 7.14286 12 7.14286C12.1667 7.14286 12.3036 7.18471 12.4107 7.26842C12.5179 7.35212 12.5714 7.45908 12.5714 7.58929ZM14.8571 7.58929C14.8571 7.71949 14.8036 7.82645 14.6964 7.91016C14.5893 7.99386 14.4524 8.03571 14.2857 8.03571C14.119 8.03571 13.9821 7.99386 13.875 7.91016C13.7679 7.82645 13.7143 7.71949 13.7143 7.58929C13.7143 7.45908 13.7679 7.35212 13.875 7.26842C13.9821 7.18471 14.119 7.14286 14.2857 7.14286C14.4524 7.14286 14.5893 7.18471 14.6964 7.26842C14.8036 7.35212 14.8571 7.45908 14.8571 7.58929ZM13.7143 6.69643C13.7143 6.82664 13.6607 6.93359 13.5536 7.0173C13.4464 7.101 13.3095 7.14286 13.1429 7.14286C12.9762 7.14286 12.8393 7.101 12.7321 7.0173C12.625 6.93359 12.5714 6.82664 12.5714 6.69643C12.5714 6.56622 12.625 6.45926 12.7321 6.37556C12.8393 6.29185 12.9762 6.25 13.1429 6.25C13.3095 6.25 13.4464 6.29185 13.5536 6.37556C13.6607 6.45926 13.7143 6.56622 13.7143 6.69643ZM12.5714 5.80357C12.5714 5.93378 12.5179 6.04074 12.4107 6.12444C12.3036 6.20815 12.1667 6.25 12 6.25C11.8333 6.25 11.6964 6.20815 11.5893 6.12444C11.4821 6.04074 11.4286 5.93378 11.4286 5.80357C11.4286 5.67336 11.4821 5.56641 11.5893 5.4827C11.6964 5.399 11.8333 5.35714 12 5.35714C12.1667 5.35714 12.3036 5.399 12.4107 5.4827C12.5179 5.56641 12.5714 5.67336 12.5714 5.80357ZM32 12.9464V13.8393C32 13.9695 31.9464 14.0765 31.8393 14.1602C31.7321 14.2439 31.5952 14.2857 31.4286 14.2857H0.571429C0.404762 14.2857 0.267857 14.2439 0.160714 14.1602C0.0535714 14.0765 0 13.9695 0 13.8393V12.9464C0 12.8162 0.0535714 12.7093 0.160714 12.6256C0.267857 12.5419 0.404762 12.5 0.571429 12.5H2.28571V3.57143C2.28571 2.58557 2.73214 1.74386 3.625 1.04632C4.51786 0.348772 5.59524 0 6.85714 0C8.14286 0 9.2381 0.362723 10.1429 1.08817C10.6905 0.911458 11.2738 0.855655 11.8929 0.920759C12.5119 0.985863 13.0655 1.16722 13.5536 1.46484L13.9464 1.15792C14.0774 1.05562 14.2083 1.05562 14.3393 1.15792L15.0893 1.74386C15.2202 1.84617 15.2202 1.94847 15.0893 2.05078L9.48214 6.43136C9.35119 6.53367 9.22024 6.53367 9.08929 6.43136L8.33929 5.84542C8.20833 5.74312 8.20833 5.64081 8.33929 5.5385L8.73214 5.23158C8.30357 4.80376 8.0625 4.32013 8.00893 3.78069C7.95536 3.24126 8.09524 2.73903 8.42857 2.274C7.9881 1.94847 7.46429 1.78571 6.85714 1.78571C6.22619 1.78571 5.6875 1.9601 5.24107 2.30887C4.79464 2.65765 4.57143 3.0785 4.57143 3.57143V12.5H31.4286C31.5952 12.5 31.7321 12.5419 31.8393 12.6256C31.9464 12.7093 32 12.8162 32 12.9464ZM16 6.69643C16 6.82664 15.9464 6.93359 15.8393 7.0173C15.7321 7.101 15.5952 7.14286 15.4286 7.14286C15.2619 7.14286 15.125 7.101 15.0179 7.0173C14.9107 6.93359 14.8571 6.82664 14.8571 6.69643C14.8571 6.56622 14.9107 6.45926 15.0179 6.37556C15.125 6.29185 15.2619 6.25 15.4286 6.25C15.5952 6.25 15.7321 6.29185 15.8393 6.37556C15.9464 6.45926 16 6.56622 16 6.69643ZM14.8571 5.80357C14.8571 5.93378 14.8036 6.04074 14.6964 6.12444C14.5893 6.20815 14.4524 6.25 14.2857 6.25C14.119 6.25 13.9821 6.20815 13.875 6.12444C13.7679 6.04074 13.7143 5.93378 13.7143 5.80357C13.7143 5.67336 13.7679 5.56641 13.875 5.4827C13.9821 5.399 14.119 5.35714 14.2857 5.35714C14.4524 5.35714 14.5893 5.399 14.6964 5.4827C14.8036 5.56641 14.8571 5.67336 14.8571 5.80357ZM13.7143 4.91071C13.7143 5.04092 13.6607 5.14788 13.5536 5.23158C13.4464 5.31529 13.3095 5.35714 13.1429 5.35714C12.9762 5.35714 12.8393 5.31529 12.7321 5.23158C12.625 5.14788 12.5714 5.04092 12.5714 4.91071C12.5714 4.78051 12.625 4.67355 12.7321 4.58984C12.8393 4.50614 12.9762 4.46429 13.1429 4.46429C13.3095 4.46429 13.4464 4.50614 13.5536 4.58984C13.6607 4.67355 13.7143 4.78051 13.7143 4.91071ZM17.1429 5.80357C17.1429 5.93378 17.0893 6.04074 16.9821 6.12444C16.875 6.20815 16.7381 6.25 16.5714 6.25C16.4048 6.25 16.2679 6.20815 16.1607 6.12444C16.0536 6.04074 16 5.93378 16 5.80357C16 5.67336 16.0536 5.56641 16.1607 5.4827C16.2679 5.399 16.4048 5.35714 16.5714 5.35714C16.7381 5.35714 16.875 5.399 16.9821 5.4827C17.0893 5.56641 17.1429 5.67336 17.1429 5.80357ZM16 4.91071C16 5.04092 15.9464 5.14788 15.8393 5.23158C15.7321 5.31529 15.5952 5.35714 15.4286 5.35714C15.2619 5.35714 15.125 5.31529 15.0179 5.23158C14.9107 5.14788 14.8571 5.04092 14.8571 4.91071C14.8571 4.78051 14.9107 4.67355 15.0179 4.58984C15.125 4.50614 15.2619 4.46429 15.4286 4.46429C15.5952 4.46429 15.7321 4.50614 15.8393 4.58984C15.9464 4.67355 16 4.78051 16 4.91071ZM14.8571 4.01786C14.8571 4.14807 14.8036 4.25502 14.6964 4.33873C14.5893 4.42243 14.4524 4.46429 14.2857 4.46429C14.119 4.46429 13.9821 4.42243 13.875 4.33873C13.7679 4.25502 13.7143 4.14807 13.7143 4.01786C13.7143 3.88765 13.7679 3.78069 13.875 3.69699C13.9821 3.61328 14.119 3.57143 14.2857 3.57143C14.4524 3.57143 14.5893 3.61328 14.6964 3.69699C14.8036 3.78069 14.8571 3.88765 14.8571 4.01786ZM18.2857 4.91071C18.2857 5.04092 18.2321 5.14788 18.125 5.23158C18.0179 5.31529 17.881 5.35714 17.7143 5.35714C17.5476 5.35714 17.4107 5.31529 17.3036 5.23158C17.1964 5.14788 17.1429 5.04092 17.1429 4.91071C17.1429 4.78051 17.1964 4.67355 17.3036 4.58984C17.4107 4.50614 17.5476 4.46429 17.7143 4.46429C17.881 4.46429 18.0179 4.50614 18.125 4.58984C18.2321 4.67355 18.2857 4.78051 18.2857 4.91071ZM17.1429 4.01786C17.1429 4.14807 17.0893 4.25502 16.9821 4.33873C16.875 4.42243 16.7381 4.46429 16.5714 4.46429C16.4048 4.46429 16.2679 4.42243 16.1607 4.33873C16.0536 4.25502 16 4.14807 16 4.01786C16 3.88765 16.0536 3.78069 16.1607 3.69699C16.2679 3.61328 16.4048 3.57143 16.5714 3.57143C16.7381 3.57143 16.875 3.61328 16.9821 3.69699C17.0893 3.78069 17.1429 3.88765 17.1429 4.01786ZM19.4286 4.01786C19.4286 4.14807 19.375 4.25502 19.2679 4.33873C19.1607 4.42243 19.0238 4.46429 18.8571 4.46429C18.6905 4.46429 18.5536 4.42243 18.4464 4.33873C18.3393 4.25502 18.2857 4.14807 18.2857 4.01786C18.2857 3.88765 18.3393 3.78069 18.4464 3.69699C18.5536 3.61328 18.6905 3.57143 18.8571 3.57143C19.0238 3.57143 19.1607 3.61328 19.2679 3.69699C19.375 3.78069 19.4286 3.88765 19.4286 4.01786Z" fill="#FF7C74"/>
</svg>
