<svg width="32" height="25" viewBox="0 0 32 25" fill="none" xmlns="http://www.w3.org/2000/svg" style="margin-right: 5px;margin-top: -5px;">
<path d="M28.5714 10.2273V1.13636C28.5714 0.834981 28.451 0.545943 28.2367 0.332833C28.0224 0.119724 27.7317 0 27.4286 0H4.57143C4.26832 0 3.97763 0.119724 3.76331 0.332833C3.54898 0.545943 3.42857 0.834981 3.42857 1.13636V10.2273C2.51926 10.2273 1.64719 10.5864 1.00421 11.2258C0.361224 11.8651 0 12.7322 0 13.6364V25H2.57143V22.7273H29.4286V25H32V13.6364C32 12.7322 31.6388 11.8651 30.9958 11.2258C30.3528 10.5864 29.4807 10.2273 28.5714 10.2273ZM14.8571 10.2273H6.28571V7.95455C6.28571 7.65316 6.40612 7.36412 6.62045 7.15102C6.83478 6.93791 7.12547 6.81818 7.42857 6.81818H13.7143C14.0174 6.81818 14.3081 6.93791 14.5224 7.15102C14.7367 7.36412 14.8571 7.65316 14.8571 7.95455V10.2273ZM17.1429 7.95455C17.1429 7.65316 17.2633 7.36412 17.4776 7.15102C17.6919 6.93791 17.9826 6.81818 18.2857 6.81818H24.5714C24.8745 6.81818 25.1652 6.93791 25.3796 7.15102C25.5939 7.36412 25.7143 7.65316 25.7143 7.95455V10.2273H17.1429V7.95455Z" fill="#FF7C74"/>
</svg>
