<svg width="39" height="39" viewBox="0 0 39 39" fill="none" xmlns="http://www.w3.org/2000/svg">
<path d="M19.5242 30.1665C25.3201 30.1665 30.0186 25.468 30.0186 19.6721C30.0186 13.8762 25.3201 9.17773 19.5242 9.17773C13.7283 9.17773 9.02979 13.8762 9.02979 19.6721C9.02979 25.468 13.7283 30.1665 19.5242 30.1665Z" fill="#FFBF34"/>
<path d="M15.5702 34.9004C15.9119 35.8278 16.6928 36.5111 17.6691 36.7064V37.1945C17.6691 38.1707 18.4989 39.0005 19.4751 39.0005C20.4513 39.0005 21.2811 38.1707 21.2811 37.1945V36.7064C22.2573 36.5599 23.0871 35.8278 23.38 34.9004H15.5702Z" fill="#FFBF34"/>
<path d="M23.5763 29.2871H15.4248V31.0931H23.5763V29.2871Z" fill="#FFBF34"/>
<path d="M0.92741 18.5977C0.4393 18.5977 0 18.9882 0 19.5251C0 20.062 0.390488 20.4525 0.92741 20.4525H5.46684C5.95495 20.4525 6.39425 20.062 6.39425 19.5251C6.39425 19.037 6.00376 18.5977 5.46684 18.5977H0.92741Z" fill="#FFBF34"/>
<path d="M6.34576 5.46484C6.1017 5.46484 5.90646 5.56248 5.71121 5.75773C5.36954 6.09941 5.36954 6.68513 5.71121 7.0268L8.93275 10.2484C9.27442 10.59 9.86016 10.59 10.2018 10.2484C10.5435 9.90668 10.5435 9.32093 10.2018 8.97925L6.9803 5.75773C6.83387 5.56248 6.58981 5.46484 6.34576 5.46484Z" fill="#FFBF34"/>
<path d="M19.5237 0C19.0356 0 18.5963 0.390471 18.5963 0.927393V5.46682C18.5963 5.95493 18.9868 6.39424 19.5237 6.39424C20.0118 6.39424 20.4511 6.00374 20.4511 5.46682V0.927393C20.4023 0.390471 20.0118 0 19.5237 0Z" fill="#FFBF34"/>
<path d="M32.6543 5.46484C32.4103 5.46484 32.215 5.56248 32.0198 5.75773L28.7983 8.97925C28.4566 9.32093 28.4566 9.90668 28.7983 10.2484C29.1399 10.59 29.7257 10.59 30.0673 10.2484L33.2889 7.0268C33.6305 6.68513 33.6305 6.09941 33.2889 5.75773C33.0936 5.56248 32.8984 5.46484 32.6543 5.46484Z" fill="#FFBF34"/>
<path d="M33.5827 18.5977C33.0946 18.5977 32.6553 18.9882 32.6553 19.5251C32.6553 20.0132 33.0458 20.4525 33.5827 20.4525H38.0733C38.5614 20.4525 39.0007 20.062 39.0007 19.5251C39.0007 18.9882 38.6102 18.5977 38.0733 18.5977H33.5827Z" fill="#FFBF34"/>
</svg>
