<svg width="27" height="31" viewBox="0 0 27 31" fill="none" xmlns="http://www.w3.org/2000/svg">
<rect width="25" height="25" rx="5" fill="#FF7C74" fill-opacity="0.82"/>
<g filter="url(#filter0_d)">
<path d="M6.54984 18.7066C6.35961 18.6749 6.04255 18.8334 5.82061 18.5798C5.59867 18.3261 5.28162 18.5481 5.21821 18.77C5.15479 18.992 3.85486 19.0554 4.01339 19.1822C4.17192 19.3407 4.58409 20.1017 4.74262 19.9431C4.90115 19.7846 5.09138 19.2773 5.24991 19.531C5.40844 19.7846 5.47185 20.2602 4.90115 20.7041C4.33045 21.1796 5.1865 20.8943 5.05968 21.4333C4.96456 22.0357 5.56697 21.9723 5.66208 22.004C5.7572 22.0357 6.2962 21.7186 6.39131 21.4967C6.48643 21.2748 7.05713 19.7846 6.99372 19.6578C6.93031 19.531 6.74007 19.2139 6.48643 19.2773C6.26449 19.3407 7.24736 18.8334 6.54984 18.7066Z" fill="#628441"/>
<path d="M6.23282 17.8522C6.01088 17.8839 5.59871 18.0741 5.88406 18.2961C6.16941 18.518 6.77182 18.0107 7.02546 18.2961C7.27911 18.5814 7.50105 17.7888 7.59616 17.979C7.69128 18.1693 8.3571 18.0107 8.83268 17.8522C9.30827 17.6937 9.81556 17.3449 10.2911 17.4717C10.7667 17.5986 11.1472 17.7254 10.8935 17.9156C10.6399 18.1058 10.4497 18.5497 10.6399 18.6131C10.8618 18.6766 11.1789 19.1521 11.4642 19.057C11.7496 18.9619 12.0984 18.0107 12.5422 18.0424C12.9861 18.0741 12.6691 17.5986 12.3837 17.5669C12.0984 17.5351 12.7325 16.7742 12.9227 17.123C13.0812 17.4717 14.0324 17.7571 14.2226 17.6303C14.4446 17.5034 14.6982 17.0279 15.0153 17.0279C15.3323 17.0279 14.5397 17.9156 15.0153 17.662C15.4909 17.44 15.4592 16.6157 15.8396 16.8693C16.2201 17.123 16.3152 16.1084 16.3786 16.5206C16.442 16.9327 16.0933 17.2815 16.3786 17.1864C16.664 17.0913 17.3298 16.3937 17.203 15.9499C17.0444 15.5377 16.9493 14.8719 17.4249 14.6182C17.8688 14.3963 17.2664 12.7793 17.7103 12.7793C18.1541 12.7793 18.1541 12.9695 18.1541 12.5257C18.1858 12.0818 18.3444 11.8598 18.6931 11.4794C19.0419 11.1306 18.1224 9.95751 17.9956 9.76728C17.8688 9.57704 18.2492 8.94293 17.8054 8.72099C17.8054 8.72099 17.3615 8.40394 17.2664 8.72099C17.1713 9.03805 17.8054 9.10146 17.742 9.3551C17.6468 9.60875 17.0127 9.64045 16.981 9.19658C16.9493 8.72099 16.7274 9.16487 16.7274 9.48193C16.7274 9.79898 15.9664 9.51363 16.1884 9.9258C16.4103 10.338 15.7762 10.7819 16.125 10.877C16.4737 10.9721 15.9981 12.5891 15.7762 12.7476C15.5226 12.9061 15.7128 13.2232 15.2689 13.35C14.825 13.4768 14.3812 14.3963 13.8105 14.5548C13.2398 14.7134 13.0812 14.967 13.0178 14.7134C12.9544 14.428 12.5105 14.4914 12.891 14.3012C13.2715 14.1109 13.5251 13.7305 13.1446 13.8256C12.7325 13.9207 12.352 14.3012 12.5105 14.4914C12.6691 14.7134 12.5739 15.0938 12.2569 15.3158C11.9398 15.5377 11.4325 15.823 11.6545 16.045C11.9081 16.2669 11.5911 16.7108 11.3057 16.5523C11.0204 16.3937 10.735 15.9499 10.4497 16.1401C10.1643 16.362 9.40338 16.5206 8.99121 16.4572C8.57904 16.3937 7.97663 16.2035 7.91322 16.4889C7.84981 16.7742 7.27911 17.4083 6.99376 17.4717C6.74011 17.5351 6.54988 17.7888 6.23282 17.8522" fill="#FFAA00"/>
<path d="M9.84655 17.9764C9.65637 18.0081 9.21263 17.8179 9.05415 18.0715C8.89567 18.3568 8.6738 18.1983 8.54701 18.3568C8.42023 18.5152 8.13497 18.0398 7.94479 18.3568C7.75462 18.6737 7.27918 19.0224 7.53274 19.2125C7.78631 19.4027 7.43766 19.5295 7.65953 19.7514C7.8814 19.9733 8.29345 20.0366 8.38853 19.7514C8.45193 19.4661 8.73719 18.8005 9.08585 18.959C9.4345 19.1175 9.59298 19.2125 9.71976 19.0541C9.84655 18.8956 10.0684 18.642 10.2586 18.5786C10.3854 18.5469 10.2903 17.8813 9.84655 17.9764" fill="#628441"/>
<path d="M17.3612 7.89474C17.5831 8.11668 17.6783 8.30691 17.5197 8.33862C17.3612 8.37032 17.0758 8.08497 16.949 8.33862C16.8222 8.59226 16.5686 9.00444 16.3149 8.71909C16.0613 8.43373 16.7905 7.95815 16.4734 7.89474C16.1564 7.83133 15.9027 7.54598 16.0613 7.22892C16.2198 6.91187 16.6003 6.75334 16.7905 6.62652C16.9807 6.49969 16.7271 6.37287 16.7905 6.18264C16.8856 5.9924 16.8856 5.9924 17.2661 6.18264C17.6148 6.37287 17.9953 6.49969 17.9953 6.05582C17.9953 5.61194 17.5831 5.39 17.9953 5.26318C18.4075 5.13635 18.1855 4.91441 18.3441 4.59736C18.5026 4.2803 18.3441 3.80472 18.1855 3.51937C18.027 3.23402 18.4709 2.66332 18.9148 3.26572C19.3587 3.86813 20.4366 4.91441 20.8488 4.97783C21.2927 5.00953 21.3878 5.13635 21.6732 5.26318C21.9585 5.35829 22.7829 4.47054 22.5926 4.72418C22.4341 5.00953 22.0536 5.45341 22.2439 5.61194C22.4341 5.77047 22.5292 6.02411 22.4024 6.11923C22.2756 6.21434 23.3536 5.89729 22.878 6.21434C22.4024 6.49969 22.1804 6.46799 22.0536 6.65822C21.9268 6.84846 21.3244 6.78504 21.039 6.62652C20.7854 6.46799 20.3098 7.22892 20.183 7.48257C20.0245 7.70451 20.2464 8.2435 20.0245 8.05327C20.0245 8.05327 19.4855 7.79962 19.1367 7.6411C18.788 7.48257 18.3441 7.07039 18.027 7.22892C17.6783 7.38745 17.4246 7.70451 17.3612 7.51427C17.3295 7.41916 17.3612 7.29233 17.1393 7.22892C16.949 7.16551 16.6637 7.32404 16.632 7.51427C16.5686 7.70451 16.6954 7.79962 16.9173 7.83133C17.171 7.76792 17.2978 7.83133 17.3612 7.89474" fill="#FF0000"/>
</g>
<defs>
<filter id="filter0_d" x="0" y="3" width="26.9999" height="27.0062" filterUnits="userSpaceOnUse" color-interpolation-filters="sRGB">
<feFlood flood-opacity="0" result="BackgroundImageFix"/>
<feColorMatrix in="SourceAlpha" type="matrix" values="0 0 0 0 0 0 0 0 0 0 0 0 0 0 0 0 0 0 127 0" result="hardAlpha"/>
<feOffset dy="4"/>
<feGaussianBlur stdDeviation="2"/>
<feComposite in2="hardAlpha" operator="out"/>
<feColorMatrix type="matrix" values="0 0 0 0 0 0 0 0 0 0 0 0 0 0 0 0 0 0 0.25 0"/>
<feBlend mode="normal" in2="BackgroundImageFix" result="effect1_dropShadow"/>
<feBlend mode="normal" in="SourceGraphic" in2="effect1_dropShadow" result="shape"/>
</filter>
</defs>
</svg>
