<svg width="25" height="25" viewBox="0 0 25 25" fill="none" xmlns="http://www.w3.org/2000/svg">
<rect class="rect-delete" x="1.68408" y="1" width="22.3158" height="22.3158" rx="3" fill="#FF5F5F" stroke="#FF5F5F" stroke-width="2"/>
<g clip-path="url(#clip0)">
<path d="M20.2104 17.1836L8.94989 5.92302C8.45878 5.43191 7.66258 5.43191 7.17225 5.92302L6.57878 6.51556C6.08767 7.00682 6.08767 7.80302 6.57878 8.29336L17.8393 19.5539C18.3306 20.045 19.1268 20.045 19.6171 19.5539L20.2097 18.9614C20.7017 18.471 20.7017 17.6747 20.2104 17.1836Z" fill="white"/>
<path d="M17.8393 5.9229L6.57878 17.1835C6.08767 17.6746 6.08767 18.4709 6.57878 18.9613L7.17132 19.5538C7.66258 20.0449 8.45878 20.0449 8.94912 19.5538L20.2104 8.29401C20.7017 7.80291 20.7017 7.00671 20.2104 6.51637L19.6179 5.92382C19.1268 5.4318 18.3306 5.4318 17.8393 5.9229Z" fill="white"/>
</g>
<defs>
<clipPath id="clip0">
<rect width="14.3684" height="14.3684" fill="white" transform="translate(6.21045 5.52539)"/>
</clipPath>
</defs>
</svg>
