<svg width="25" height="25" viewBox="0 0 25 25" fill="none" xmlns="http://www.w3.org/2000/svg">
<rect class="rect-eye" x="1" y="1" width="22.3158" height="22.3158" rx="3" fill="#1976D2" stroke="#1976D2" stroke-width="2"/>
<path d="M12.4688 7.25391C9.45954 7.25391 6.73064 8.90027 4.71699 11.5744C4.55267 11.7935 4.55267 12.0996 4.71699 12.3187C6.73064 14.996 9.45954 16.6424 12.4688 16.6424C15.478 16.6424 18.2069 14.996 20.2205 12.3219C20.3848 12.1028 20.3848 11.7967 20.2205 11.5776C18.2069 8.90027 15.478 7.25391 12.4688 7.25391ZM12.6846 15.2538C10.6871 15.3794 9.03748 13.733 9.16313 11.7323C9.26623 10.0827 10.6033 8.74562 12.2529 8.64252C14.2504 8.51687 15.9 10.1632 15.7744 12.164C15.668 13.8104 14.331 15.1474 12.6846 15.2538ZM12.5847 13.7266C11.5086 13.7943 10.6194 12.9082 10.6903 11.8322C10.7451 10.9429 11.4668 10.2245 12.356 10.1665C13.4321 10.0988 14.3213 10.9848 14.2504 12.0609C14.1924 12.9534 13.4707 13.6718 12.5847 13.7266Z" fill="white"/>
</svg>
