<svg width="30" height="30" viewBox="0 0 30 30" fill="none" xmlns="http://www.w3.org/2000/svg" style="margin-right: 5px;margin-top: -5px;">
<path d="M15 0C6.71572 0 0 6.71578 0 15C0 23.2842 6.71572 30 15 30C23.2843 30 30 23.2842 30 15C30 6.71578 23.2843 0 15 0ZM15 22.2772C15 22.2772 7.17357 17.4172 7.17357 13.0802C7.17357 10.7262 9.08186 8.81789 11.4359 8.81789C12.9268 8.81789 14.2383 9.58406 15 10.7436C15.7617 9.584 17.0731 8.81789 18.5641 8.81789C20.9181 8.81789 22.8264 10.7262 22.8264 13.0802C22.8264 17.4172 15 22.2772 15 22.2772Z" fill="#FFC107"/>
</svg>
