<svg width="42" height="42" viewBox="0 0 42 42" fill="none" xmlns="http://www.w3.org/2000/svg">
<g filter="url(#filter0_d)">
<path d="M8.56138 28.097C8.22108 28.0403 7.6539 28.3238 7.25687 27.8701C6.85985 27.4164 6.29267 27.8134 6.17924 28.2104C6.0658 28.6074 3.74037 28.7209 4.02396 28.9477C4.30755 29.2313 5.04488 30.5926 5.32847 30.309C5.61206 30.0254 5.95236 29.1179 6.23595 29.5716C6.51954 30.0254 6.63298 30.8761 5.61206 31.6702C4.59114 32.521 6.12252 32.0105 5.89565 32.9747C5.72549 34.0523 6.80313 33.9389 6.97328 33.9956C7.14344 34.0523 8.10764 33.4852 8.27779 33.0881C8.44795 32.6911 9.46887 30.0254 9.35543 29.7985C9.242 29.5716 8.90169 29.0045 8.44795 29.1179C8.05092 29.2313 9.80918 28.3238 8.56138 28.097Z" fill="#628441"/>
<path d="M7.9943 26.5692C7.59728 26.626 6.85995 26.9663 7.37041 27.3633C7.88087 27.7603 8.95851 26.8528 9.41225 27.3633C9.86599 27.8737 10.263 26.4558 10.4332 26.7961C10.6033 27.1364 11.7944 26.8528 12.6452 26.5692C13.4959 26.2856 14.4034 25.6618 15.2542 25.8886C16.105 26.1155 16.7856 26.3424 16.3318 26.6827C15.8781 27.023 15.5378 27.817 15.8781 27.9305C16.2751 28.0439 16.8423 28.8947 17.3527 28.7245C17.8632 28.5544 18.4871 26.8528 19.2812 26.9095C20.0752 26.9663 19.508 26.1155 18.9976 26.0588C18.4871 26.0021 19.6215 24.6408 19.9618 25.2647C20.2454 25.8886 21.9469 26.3991 22.2872 26.1722C22.6842 25.9453 23.138 25.0946 23.7051 25.0946C24.2723 25.0946 22.8544 26.6827 23.7051 26.2289C24.5559 25.8319 24.4992 24.3572 25.1798 24.811C25.8604 25.2647 26.0306 23.4498 26.144 24.1871C26.2574 24.9244 25.6335 25.5483 26.144 25.3782C26.6545 25.208 27.8455 23.9602 27.6187 23.1662C27.3351 22.4288 27.1649 21.2378 28.0157 20.784C28.8097 20.387 27.7321 17.4944 28.5262 17.4944C29.3202 17.4944 29.3202 17.8347 29.3202 17.0406C29.3769 16.2466 29.6605 15.8496 30.2844 15.169C30.9083 14.5451 29.2635 12.4465 29.0366 12.1062C28.8097 11.7659 29.4904 10.6315 28.6963 10.2345C28.6963 10.2345 27.9023 9.66732 27.7321 10.2345C27.562 10.8017 28.6963 10.9151 28.5829 11.3689C28.4127 11.8226 27.2784 11.8793 27.2216 11.0853C27.1649 10.2345 26.7679 11.0286 26.7679 11.5957C26.7679 12.1629 25.4067 11.6524 25.8037 12.3898C26.2007 13.1271 25.0664 13.9212 25.6903 14.0913C26.3142 14.2615 25.4634 17.1541 25.0664 17.4377C24.6126 17.7213 24.9529 18.2884 24.1589 18.5153C23.3648 18.7422 22.5708 20.387 21.5499 20.6706C20.5289 20.9542 20.2454 21.4079 20.1319 20.9542C20.0185 20.4437 19.2244 20.5571 19.905 20.2168C20.5857 19.8765 21.0394 19.1959 20.3588 19.3661C19.6215 19.5362 18.9408 20.2168 19.2244 20.5571C19.508 20.9542 19.3379 21.6348 18.7707 22.0318C18.2035 22.4288 17.296 22.9393 17.6931 23.3363C18.1468 23.7333 17.5796 24.5274 17.0692 24.2438C16.5587 23.9602 16.0482 23.1662 15.5378 23.5065C15.0273 23.9035 13.6661 24.1871 12.9288 24.0737C12.1914 23.9602 11.1138 23.6199 11.0003 24.1304C10.8869 24.6408 9.86599 25.7752 9.35553 25.8886C8.90179 26.0021 8.56148 26.4558 7.9943 26.5692" fill="#FFAA00"/>
<path d="M14.4588 26.7923C14.1186 26.849 13.3248 26.5088 13.0413 26.9624C12.7578 27.4727 12.3609 27.1892 12.1341 27.4727C11.9073 27.7562 11.397 26.9057 11.0568 27.4727C10.7166 28.0397 9.86605 28.6634 10.3197 29.0036C10.7733 29.3438 10.1496 29.5706 10.5465 29.9675C10.9434 30.3644 11.6805 30.4778 11.8506 29.9675C11.964 29.4572 12.4743 28.2665 13.098 28.55C13.7217 28.8335 14.0052 29.0036 14.232 28.7201C14.4588 28.4366 14.8557 27.983 15.1959 27.8696C15.4227 27.8129 15.2526 26.6222 14.4588 26.7923" fill="#628441"/>
<path d="M27.9018 8.75615C28.2988 9.15318 28.469 9.49348 28.1854 9.5502C27.9018 9.60692 27.3914 9.09646 27.1645 9.5502C26.9376 10.0039 26.4839 10.7413 26.0301 10.2308C25.5764 9.72035 26.8809 8.86959 26.3137 8.75615C25.7465 8.64272 25.2928 8.13226 25.5764 7.56508C25.86 6.9979 26.5406 6.71431 26.8809 6.48744C27.2212 6.26057 26.7675 6.0337 26.8809 5.69339C27.0511 5.35308 27.0511 5.35308 27.7317 5.69339C28.3556 6.0337 29.0362 6.26057 29.0362 5.46652C29.0362 4.67247 28.2988 4.27544 29.0362 4.04857C29.7735 3.8217 29.3765 3.42468 29.6601 2.8575C29.9437 2.29032 29.6601 1.43955 29.3765 0.929092C29.0929 0.418632 29.8869 -0.602289 30.681 0.47535C31.475 1.55299 33.4035 3.42468 34.1408 3.53811C34.9348 3.59483 35.105 3.8217 35.6155 4.04857C36.1259 4.21873 37.6006 2.63063 37.2603 3.08437C36.9767 3.59483 36.2961 4.38888 36.6364 4.67247C36.9767 4.95606 37.1468 5.4098 36.92 5.57995C36.6931 5.75011 38.6215 5.18293 37.7707 5.75011C36.92 6.26057 36.5229 6.20385 36.2961 6.54416C36.0692 6.88446 34.9916 6.77103 34.4811 6.48744C34.0274 6.20385 33.1766 7.56508 32.9497 8.01882C32.6661 8.41584 33.0631 9.38005 32.6661 9.03974C32.6661 9.03974 31.7019 8.586 31.078 8.30241C30.4541 8.01882 29.6601 7.28149 29.0929 7.56508C28.469 7.84867 28.0153 8.41584 27.9018 8.07554C27.8451 7.90538 27.9018 7.67851 27.5048 7.56508C27.1645 7.45164 26.654 7.73523 26.5973 8.07554C26.4839 8.41584 26.7108 8.586 27.1078 8.64272C27.5615 8.52928 27.7884 8.64272 27.9018 8.75615" fill="#FF0000"/>
</g>
<defs>
<filter id="filter0_d" x="0" y="0" width="41.9888" height="41.9996" filterUnits="userSpaceOnUse" color-interpolation-filters="sRGB">
<feFlood flood-opacity="0" result="BackgroundImageFix"/>
<feColorMatrix in="SourceAlpha" type="matrix" values="0 0 0 0 0 0 0 0 0 0 0 0 0 0 0 0 0 0 127 0" result="hardAlpha"/>
<feOffset dy="4"/>
<feGaussianBlur stdDeviation="2"/>
<feComposite in2="hardAlpha" operator="out"/>
<feColorMatrix type="matrix" values="0 0 0 0 0 0 0 0 0 0 0 0 0 0 0 0 0 0 0.25 0"/>
<feBlend mode="normal" in2="BackgroundImageFix" result="effect1_dropShadow"/>
<feBlend mode="normal" in="SourceGraphic" in2="effect1_dropShadow" result="shape"/>
</filter>
</defs>
</svg>
