<svg width="30" height="30" viewBox="0 0 30 30" fill="none" xmlns="http://www.w3.org/2000/svg" style="margin-right: 5px;margin-top: -5px;">
<path d="M15.0015 0C6.71997 0 0.00146484 6.71003 0.00146484 14.9921C0.00146484 23.2821 6.71997 30 15.0014 30C23.2875 30 30.0003 23.282 30.0003 14.9921C30.0004 6.71003 23.2875 0 15.0015 0ZM16.0704 23.3385C15.722 23.6486 15.3183 23.8044 14.8609 23.8044C14.3877 23.8044 13.9749 23.6513 13.6226 23.3447C13.2697 23.0386 13.0929 22.6101 13.0929 22.0595C13.0929 21.5711 13.264 21.1599 13.6051 20.8268C13.9461 20.4936 14.3645 20.327 14.8609 20.327C15.3493 20.327 15.7604 20.4936 16.0942 20.8268C16.4273 21.1599 16.5945 21.571 16.5945 22.0595C16.5938 22.6022 16.4193 23.0286 16.0704 23.3385ZM20.4144 12.5691C20.1468 13.0654 19.8289 13.4934 19.4601 13.8543C19.0925 14.2151 18.4313 14.8216 17.477 15.6742C17.2138 15.9148 17.0021 16.126 16.8434 16.3078C16.6848 16.4902 16.5662 16.6567 16.4888 16.8081C16.4109 16.9594 16.351 17.1107 16.3087 17.262C16.2663 17.4128 16.2025 17.6788 16.1161 18.0588C15.9693 18.8652 15.508 19.2683 14.7327 19.2683C14.3295 19.2683 13.9907 19.1367 13.7145 18.873C13.4395 18.6093 13.3023 18.218 13.3023 17.6985C13.3023 17.0475 13.4034 16.4833 13.605 16.0062C13.8055 15.529 14.0737 15.1106 14.4069 14.7498C14.7406 14.389 15.19 13.9609 15.7564 13.4646C16.2528 13.0303 16.6113 12.7029 16.8321 12.482C17.0534 12.2607 17.2393 12.0145 17.39 11.7435C17.5419 11.4718 17.6165 11.1776 17.6165 10.8598C17.6165 10.2392 17.3867 9.71632 16.9248 9.28999C16.4634 8.86367 15.8682 8.6502 15.1393 8.6502C14.2861 8.6502 13.6581 8.86534 13.2549 9.29562C12.8518 9.7259 12.5113 10.3594 12.2318 11.1969C11.9675 12.0733 11.4672 12.5114 10.7314 12.5114C10.2971 12.5114 9.9307 12.3584 9.63199 12.0523C9.33383 11.7462 9.18476 11.4148 9.18476 11.0579C9.18476 10.3216 9.42136 9.57509 9.89402 8.819C10.3672 8.06291 11.0573 7.43666 11.9646 6.94087C12.8715 6.44452 13.9303 6.19604 15.1393 6.19604C16.2635 6.19604 17.2557 6.40382 18.1162 6.81889C18.9768 7.23333 19.6419 7.79748 20.1112 8.51119C20.5799 9.22435 20.8148 9.99968 20.8148 10.8371C20.8159 11.495 20.6821 12.0727 20.4144 12.5691Z" fill="#4CAF50"/>
</svg>
