<svg width="30" height="30" viewBox="0 0 30 30" fill="none" xmlns="http://www.w3.org/2000/svg" style="margin-right: 5px;margin-top: -5px;">
<circle cx="15" cy="15" r="15" fill="#ACACAC"/>
<g clip-path="url(#clip0)">
<path fill-rule="evenodd" clip-rule="evenodd" d="M15.26 5.99958C10.17 5.85958 6.00003 9.94958 6.00003 14.9996H4.21003C3.76003 14.9996 3.54003 15.5396 3.86003 15.8496L6.65003 18.6496C6.85003 18.8496 7.16003 18.8496 7.36003 18.6496L10.15 15.8496C10.46 15.5396 10.24 14.9996 9.79003 14.9996H8.00003C8.00003 11.0996 11.18 7.94958 15.1 7.99958C18.82 8.04958 21.95 11.1796 22 14.8996C22.05 18.8096 18.9 21.9996 15 21.9996C13.39 21.9996 11.9 21.4496 10.72 20.5196C10.32 20.2096 9.76003 20.2396 9.40003 20.5996C8.98003 21.0196 9.01003 21.7296 9.48003 22.0896C11 23.2896 12.91 23.9996 15 23.9996C20.05 23.9996 24.14 19.8296 24 14.7396C23.87 10.0496 19.95 6.12958 15.26 5.99958ZM14.75 10.9996C14.34 10.9996 14 11.3396 14 11.7496V15.4296C14 15.7796 14.19 16.1096 14.49 16.2896L17.61 18.1396C17.97 18.3496 18.43 18.2296 18.64 17.8796C18.85 17.5196 18.73 17.0596 18.38 16.8496L15.5 15.1396V11.7396C15.5 11.3396 15.16 10.9996 14.75 10.9996Z" fill="white"/>
</g>
<defs>
<clipPath id="clip0">
<rect width="21" height="18" fill="white" transform="translate(5 6)"/>
</clipPath>
</defs>
</svg>
