<svg width="30" height="30" viewBox="0 0 30 30" fill="none" xmlns="http://www.w3.org/2000/svg" style="margin-right: 5px;margin-top: -5px;">
<g clip-path="url(#clip0)">
<path d="M29.7391 6.73209C29.5056 6.43305 29.1473 6.25827 28.7679 6.25827H5.31117L4.96249 2.3739C4.90546 1.73868 4.37309 1.25195 3.73535 1.25195H1.23207C0.551616 1.25195 0 1.80357 0 2.48402C0 3.16448 0.551616 3.7161 1.23207 3.7161H2.60894L3.95941 18.7614C3.9597 18.7791 3.95882 18.7965 3.95982 18.8144C3.96258 18.8617 3.96874 18.9079 3.9766 18.9534L4.026 19.5035C4.02694 19.5139 4.02799 19.5243 4.02923 19.5345C4.17895 20.8317 4.84186 21.9557 5.80047 22.715C5.30377 23.3494 5.00655 24.147 5.00655 25.0133C5.00655 27.0729 6.68223 28.7486 8.74184 28.7486C10.8015 28.7486 12.4772 27.0729 12.4772 25.0133C12.4772 24.5671 12.3983 24.1391 12.2542 23.7421H18.9975C18.8533 24.1391 18.7745 24.5671 18.7745 25.0133C18.7745 27.0729 20.4502 28.7486 22.5098 28.7486C24.5695 28.7486 26.2452 27.0729 26.2452 25.0133C26.2452 22.9536 24.5695 21.2779 22.5098 21.2779H8.75017C7.81427 21.2779 6.99869 20.7133 6.64667 19.8906L26.3368 18.7334C26.8744 18.7018 27.3292 18.3247 27.4598 17.8023L29.9633 7.78909C30.0552 7.42111 29.9725 7.03119 29.7391 6.73209Z" fill="#74BD9E"/>
</g>
<defs>
<clipPath id="clip0">
<rect width="30" height="30" fill="white"/>
</clipPath>
</defs>
</svg>
