<svg width="30" height="30" viewBox="0 0 30 30" fill="none" xmlns="http://www.w3.org/2000/svg" style="margin-right: 5px;margin-top: -5px;">
<path d="M18.7499 16.2499C18.0586 16.2499 17.5 16.81 17.5 17.4998V22.5C17.5 23.1887 16.9399 23.7499 16.2498 23.7499H12.4998V4.99992C12.4998 3.93242 11.8198 2.97867 10.7974 2.62367L10.4273 2.49985H16.2498C16.9399 2.49985 17.5 3.06107 17.5 3.75V7.5C17.5 8.18985 18.0586 8.74992 18.7499 8.74992C19.4411 8.74992 19.9998 8.18985 19.9998 7.5V3.75C19.9998 1.68251 18.3173 0 16.2498 0H2.81248C2.76487 0 2.72505 0.021286 2.67881 0.0274658C2.61862 0.0224304 2.56117 0 2.50006 0C1.12128 0 0 1.12106 0 2.49985V24.9998C0 26.0674 0.680003 27.0211 1.70241 27.3761L9.22502 29.8837C9.47999 29.9625 9.73359 30 10 30C11.3788 30 12.4998 28.8787 12.4998 27.4999V26.25H16.2498C18.3173 26.25 19.9998 24.5675 19.9998 22.5V17.4998C19.9998 16.81 19.4411 16.2499 18.7499 16.2499Z" fill="#FF5F5F"/>
<path d="M29.6335 11.6165L24.6334 6.61659C24.2761 6.25908 23.7385 6.1515 23.2711 6.34514C22.8049 6.539 22.4998 6.99516 22.4998 7.50031V11.2503H17.4999C16.8098 11.2503 16.2498 11.8102 16.2498 12.5003C16.2498 13.1903 16.8098 13.7502 17.4999 13.7502H22.4998V17.5002C22.4998 18.0053 22.8049 18.4615 23.2711 18.6554C23.7385 18.849 24.2761 18.7414 24.6334 18.3841L29.6335 13.384C30.1222 12.8953 30.1222 12.1052 29.6335 11.6165Z" fill="#FF5F5F"/>
</svg>
