<svg width="654" height="188" viewBox="0 0 654 188" fill="none" xmlns="http://www.w3.org/2000/svg">
<path d="M0.370117 0.279297V187.719H68.0401V39.2693L0.370117 0.279297Z" fill="#048041"/>
<path d="M68.04 67.1191L122.56 98.2491V187.719H68.04V67.1191Z" fill="#048041"/>
<path d="M44.2202 25.5488V187.719H68.0402V39.2688L44.2202 25.5488Z" fill="#323232"/>
<path d="M44.2202 88.0098L13.7302 104.93V187.72H44.2202V88.0098Z" fill="white"/>
<path d="M44.2202 88.0102L63.9602 77.4902L68.0402 80.1202V146.64H44.2202V88.0102Z" fill="#C8DC67"/>
<path d="M68.04 67.1191L122.56 98.2491V111.509L68.04 80.1191V67.1191Z" fill="#323232"/>
<path d="M94.41 120.859H77.75V131.929H94.41V120.859Z" fill="white"/>
<path d="M113.06 120.6H96.6602V131.93H113.06V120.6Z" fill="white"/>
<path d="M94.41 135.479H77.75V146.289H94.41V135.479Z" fill="white"/>
<path d="M113.06 135.17H96.6602V146.29H113.06V135.17Z" fill="white"/>
<path d="M150.66 143.07V102.18H161.34C166 102.18 169.29 103.07 171.22 104.85C173.15 106.63 174.11 108.74 174.11 111.19C174.11 113.18 173.46 115.15 172.17 117.12C170.88 119.08 168.71 120.63 165.68 121.78C168.33 122.59 170.32 123.52 171.64 124.56C172.96 125.6 173.98 126.85 174.7 128.32C175.41 129.78 175.77 131.3 175.77 132.87C175.77 134.77 175.28 136.53 174.29 138.17C173.31 139.81 172.01 141.04 170.39 141.86C168.77 142.68 166.24 143.09 162.79 143.09H150.66V143.07ZM156.4 120.14H158.28C161.7 120.14 164.2 119.42 165.79 117.97C167.38 116.52 168.17 114.7 168.17 112.49C168.17 110.56 167.46 109.08 166.05 108.06C164.64 107.04 162.19 106.53 158.69 106.53H156.39V120.14H156.4ZM156.4 138.74H157.6C161.74 138.74 164.44 138.51 165.69 138.06C166.94 137.61 167.9 136.86 168.59 135.82C169.27 134.78 169.61 133.61 169.61 132.3C169.61 129.94 168.52 127.94 166.33 126.29C164.14 124.64 161.39 123.82 158.06 123.82H156.41V138.74H156.4Z" fill="black"/>
<path d="M183.18 143.07V102.18H188.98V143.07H183.18Z" fill="black"/>
<path d="M199.5 143.07V102.18H205.3V138.73H223.45V143.07H199.5Z" fill="black"/>
<path d="M229.67 143.07V102.18H235.47V138.73H253.62V143.07H229.67Z" fill="black"/>
<path d="M259.81 143.07V102.18H265.61V143.07H259.81Z" fill="black"/>
<path d="M292.86 144.1C288.99 144.1 285.63 143.23 282.76 141.5C279.9 139.77 277.68 137.24 276.1 133.92C274.53 130.59 273.74 126.83 273.74 122.63C273.74 118.58 274.49 114.89 275.99 111.56C277.49 108.24 279.71 105.67 282.63 103.87C285.56 102.07 288.97 101.16 292.85 101.16C296.74 101.16 300.14 102.06 303.07 103.87C306 105.68 308.21 108.24 309.71 111.56C311.21 114.89 311.96 118.57 311.96 122.63C311.96 126.66 311.22 130.33 309.74 133.64C308.26 136.95 306.07 139.51 303.16 141.35C300.28 143.18 296.84 144.1 292.86 144.1ZM292.86 139.76C296.99 139.76 300.18 138.22 302.43 135.15C304.69 132.07 305.81 127.88 305.81 122.58C305.81 117.3 304.67 113.13 302.4 110.08C300.13 107.03 296.94 105.51 292.85 105.51C288.76 105.51 285.58 107.03 283.3 110.08C281.03 113.13 279.89 117.3 279.89 122.58C279.89 127.88 281.02 132.08 283.27 135.15C285.54 138.22 288.73 139.76 292.86 139.76Z" fill="black"/>
<path d="M320.1 143.07V102.18H325.82L346.32 133.73V102.18H351.32V143.07H345.63L325.1 111.53V143.07H320.1Z" fill="black"/>
<path d="M379.8 143.07V102.18H390.71C394.59 102.18 397.38 102.57 399.06 103.34C400.75 104.11 402.04 105.3 402.95 106.9C403.85 108.5 404.3 110.5 404.3 112.89C404.3 115.69 403.71 118.14 402.51 120.24C401.32 122.34 399.4 123.96 396.76 125.1C394.12 126.24 391.22 126.81 388.04 126.81H385.54V143.06H379.8V143.07ZM385.55 122.44H387.81C391.51 122.44 394.17 121.57 395.79 119.81C397.4 118.06 398.21 115.9 398.21 113.32C398.21 111.92 397.95 110.74 397.44 109.77C396.93 108.8 396.1 108.02 394.97 107.42C393.84 106.82 391.84 106.52 388.99 106.52H385.56V122.44H385.55Z" fill="black"/>
<path d="M411.08 143.07V102.18H423.46C428.05 102.18 431.21 103.21 432.96 105.26C434.71 107.31 435.58 109.67 435.58 112.32C435.58 113.87 435.27 115.4 434.66 116.91C434.04 118.42 433.16 119.77 432.02 120.94C430.88 122.12 429.32 123.11 427.35 123.92L441.01 143.07H433.88L422.24 125.77H416.82V143.07H411.08V143.07ZM416.82 121.44H418.7C422.99 121.44 425.89 120.55 427.39 118.76C428.89 116.97 429.64 115.01 429.64 112.88C429.64 111.61 429.36 110.5 428.8 109.55C428.24 108.6 427.36 107.86 426.18 107.33C424.99 106.8 423.09 106.53 420.47 106.53H416.82V121.44V121.44Z" fill="black"/>
<path d="M463.57 144.1C459.7 144.1 456.33 143.23 453.47 141.5C450.61 139.77 448.39 137.24 446.81 133.92C445.23 130.59 444.45 126.83 444.45 122.63C444.45 118.58 445.2 114.89 446.7 111.56C448.2 108.24 450.42 105.67 453.34 103.87C456.27 102.07 459.68 101.16 463.56 101.16C467.45 101.16 470.85 102.06 473.78 103.87C476.71 105.68 478.92 108.24 480.42 111.56C481.92 114.89 482.67 118.57 482.67 122.63C482.67 126.66 481.93 130.33 480.45 133.64C478.97 136.95 476.78 139.51 473.87 141.35C470.99 143.18 467.55 144.1 463.57 144.1ZM463.57 139.76C467.7 139.76 470.89 138.22 473.14 135.15C475.4 132.07 476.52 127.88 476.52 122.58C476.52 117.3 475.38 113.13 473.11 110.08C470.83 107.03 467.65 105.51 463.56 105.51C459.47 105.51 456.29 107.03 454.01 110.08C451.73 113.13 450.6 117.3 450.6 122.58C450.6 127.88 451.73 132.08 453.98 135.15C456.25 138.22 459.44 139.76 463.57 139.76Z" fill="black"/>
<path d="M490.81 143.07V102.18H501.72C505.6 102.18 508.39 102.57 510.07 103.34C511.76 104.11 513.05 105.3 513.96 106.9C514.86 108.5 515.31 110.5 515.31 112.89C515.31 115.69 514.71 118.14 513.52 120.24C512.33 122.34 510.41 123.96 507.77 125.1C505.13 126.24 502.23 126.81 499.05 126.81H496.55V143.06H490.81V143.07ZM496.56 122.44H498.82C502.52 122.44 505.18 121.57 506.79 119.81C508.4 118.06 509.21 115.9 509.21 113.32C509.21 111.92 508.95 110.74 508.44 109.77C507.92 108.8 507.1 108.02 505.97 107.42C504.84 106.82 502.84 106.52 499.99 106.52H496.56V122.44Z" fill="black"/>
<path d="M522.09 143.07V102.18H544.99V106.52H527.89V119.64H542.23V123.92H527.89V138.73H546.18V143.07H522.09V143.07Z" fill="black"/>
<path d="M552.75 143.07V102.18H565.13C569.72 102.18 572.88 103.21 574.63 105.26C576.38 107.31 577.25 109.67 577.25 112.32C577.25 113.87 576.94 115.4 576.33 116.91C575.71 118.42 574.83 119.77 573.69 120.94C572.55 122.12 570.99 123.11 569.02 123.92L582.68 143.07H575.55L563.91 125.77H558.49V143.07H552.75V143.07ZM558.5 121.44H560.38C564.67 121.44 567.57 120.55 569.07 118.76C570.57 116.97 571.32 115.01 571.32 112.88C571.32 111.61 571.04 110.5 570.48 109.55C569.92 108.6 569.04 107.86 567.86 107.33C566.67 106.8 564.77 106.53 562.15 106.53H558.5V121.44Z" fill="black"/>
<path d="M598.23 143.07V106.52H583.72V102.18H618.53V106.52H604.03V143.07H598.23Z" fill="black"/>
<path d="M633.15 143.07V126L619.5 102.18H626.13L636.74 120.64L648.15 102.18H653.56L638.94 125.89V143.07H633.15Z" fill="black"/>
<path d="M160.45 174.7L158.05 180.82H156.73L163.76 163.41H165L171.98 180.82H170.66L168.21 174.7H160.45ZM167.79 173.64L165.34 167.52C164.88 166.35 164.64 165.61 164.38 164.76H164.33C164.07 165.64 163.79 166.41 163.37 167.44L160.89 173.64H167.79Z" fill="black"/>
<path d="M189.09 163.59C190.2 163.41 191.62 163.25 193.22 163.25C195.54 163.25 197.22 163.82 198.26 164.8C199.14 165.62 199.65 166.76 199.65 168.18C199.65 169.71 199.19 170.89 198.31 171.77C197.12 173.01 195.13 173.65 192.83 173.65C191.93 173.65 191.07 173.62 190.35 173.39V180.8H189.08V163.59H189.09ZM190.36 172.3C191.08 172.53 192.01 172.61 192.99 172.61C196.45 172.61 198.39 171.04 198.39 168.35C198.39 165.35 196.01 164.32 193.2 164.32C191.88 164.32 190.88 164.45 190.36 164.55V172.3V172.3Z" fill="black"/>
<path d="M207.32 163.64C208.51 163.41 210.21 163.25 211.56 163.25C214.04 163.25 215.59 163.77 216.65 164.8C217.4 165.5 217.89 166.66 217.89 167.85C217.89 170.15 216.42 171.73 214.3 172.37V172.42C215.72 172.91 216.65 174.23 217.06 175.96C217.71 178.69 218.07 180.07 218.48 180.82H217.14C216.86 180.33 216.47 178.8 215.98 176.63C215.41 174.13 214.27 172.96 211.9 172.84H208.59V180.82H207.32V163.64V163.64ZM208.58 171.81H211.94C214.81 171.81 216.62 170.31 216.62 168.07C216.62 165.28 214.32 164.3 211.53 164.3C210.11 164.3 209.08 164.46 208.58 164.59V171.81V171.81Z" fill="black"/>
<path d="M242.02 171.88C242.02 177.9 237.73 181.13 233.18 181.13C228.22 181.13 224.53 177.44 224.53 172.35C224.53 166.87 228.4 163.1 233.37 163.1C238.48 163.1 242.02 166.87 242.02 171.88ZM225.85 172.3C225.85 176.41 228.67 180.1 233.24 180.1C237.84 180.1 240.71 176.61 240.71 171.99C240.71 168.22 238.26 164.14 233.32 164.14C228.35 164.13 225.85 168.01 225.85 172.3Z" fill="black"/>
<path d="M249.35 163.59C250.46 163.41 251.88 163.25 253.48 163.25C255.8 163.25 257.48 163.82 258.52 164.8C259.4 165.62 259.91 166.76 259.91 168.18C259.91 169.71 259.45 170.89 258.57 171.77C257.38 173.01 255.39 173.65 253.09 173.65C252.19 173.65 251.33 173.62 250.61 173.39V180.8H249.34V163.59H249.35ZM250.61 172.3C251.33 172.53 252.26 172.61 253.24 172.61C256.7 172.61 258.64 171.04 258.64 168.35C258.64 165.35 256.26 164.32 253.45 164.32C252.13 164.32 251.13 164.45 250.61 164.55V172.3Z" fill="black"/>
<path d="M276.59 172.17H268.84V179.76H277.47V180.82H267.58V163.41H277.04V164.47H268.85V171.11H276.6V172.17H276.59Z" fill="black"/>
<path d="M284.84 163.64C286.03 163.41 287.73 163.25 289.08 163.25C291.56 163.25 293.11 163.77 294.17 164.8C294.92 165.5 295.41 166.66 295.41 167.85C295.41 170.15 293.94 171.73 291.82 172.37V172.42C293.24 172.91 294.17 174.23 294.58 175.96C295.23 178.69 295.59 180.07 296 180.82H294.66C294.38 180.33 293.99 178.8 293.5 176.63C292.93 174.13 291.79 172.96 289.42 172.84H286.11V180.82H284.84V163.64V163.64ZM286.1 171.81H289.46C292.33 171.81 294.14 170.31 294.14 168.07C294.14 165.28 291.84 164.3 289.05 164.3C287.63 164.3 286.6 164.46 286.1 164.59V171.81V171.81Z" fill="black"/>
<path d="M307.43 164.47H300.94V163.41H315.18V164.47H308.7V180.82H307.43V164.47Z" fill="black"/>
<path d="M326.4 180.82V173.38L320.3 163.41H321.75L324.98 168.84C325.81 170.23 326.45 171.27 327.1 172.48H327.15C327.72 171.37 328.47 170.2 329.32 168.84L332.7 163.41H334.15L327.67 173.44V180.83H326.4V180.82Z" fill="black"/>
<path d="M353.23 164.47H346.74V163.41H360.98V164.47H354.5V180.82H353.23V164.47Z" fill="black"/>
<path d="M368.05 163.41V171.03H378.95V163.41H380.22V180.82H378.95V172.09H368.05V180.82H366.78V163.41H368.05Z" fill="black"/>
<path d="M391.05 174.7L388.65 180.82H387.33L394.36 163.41H395.6L402.58 180.82H401.26L398.8 174.7H391.05ZM398.39 173.64L395.94 167.52C395.48 166.35 395.24 165.61 394.98 164.76H394.93C394.67 165.64 394.39 166.41 393.97 167.44L391.49 173.64H398.39Z" fill="black"/>
<path d="M411.18 164.47H404.7V163.41H418.94V164.47H412.45V180.82H411.18V164.47Z" fill="black"/>
<path d="M434.4 178.78C435.54 179.55 437.03 180.07 438.72 180.07C441.53 180.07 443.24 178.57 443.24 176.43C443.24 174.44 442.23 173.3 439.31 172.37C435.82 171.26 434.43 169.84 434.43 167.57C434.43 165.01 436.63 163.1 439.83 163.1C441.66 163.1 443.03 163.54 443.7 163.98L443.21 165.04C442.72 164.7 441.48 164.14 439.77 164.14C436.64 164.14 435.66 166.02 435.66 167.4C435.66 169.26 436.77 170.32 439.59 171.22C442.77 172.25 444.47 173.49 444.47 176.31C444.47 178.71 442.71 181.14 438.55 181.14C436.9 181.14 434.96 180.62 433.9 179.85L434.4 178.78Z" fill="black"/>
<path d="M454.32 174.7L451.92 180.82H450.6L457.63 163.41H458.87L465.85 180.82H464.53L462.08 174.7H454.32ZM461.66 173.64L459.21 167.52C458.75 166.35 458.51 165.61 458.25 164.76H458.2C457.94 165.64 457.66 166.41 457.24 167.44L454.76 173.64H461.66Z" fill="black"/>
<path d="M474.46 164.47H467.98V163.41H482.22V164.47H475.73V180.82H474.46V164.47Z" fill="black"/>
<path d="M489.27 163.41V180.82H488V163.41H489.27Z" fill="black"/>
<path d="M497.28 178.78C498.42 179.55 499.91 180.07 501.6 180.07C504.41 180.07 506.12 178.57 506.12 176.43C506.12 174.44 505.11 173.3 502.19 172.37C498.7 171.26 497.31 169.84 497.31 167.57C497.31 165.01 499.51 163.1 502.71 163.1C504.54 163.1 505.91 163.54 506.58 163.98L506.09 165.04C505.6 164.7 504.36 164.14 502.65 164.14C499.52 164.14 498.54 166.02 498.54 167.4C498.54 169.26 499.65 170.32 502.47 171.22C505.65 172.25 507.35 173.49 507.35 176.31C507.35 178.71 505.59 181.14 501.43 181.14C499.78 181.14 497.84 180.62 496.78 179.85L497.28 178.78Z" fill="black"/>
<path d="M514.99 163.41H524.45V164.47H516.26V171.32H523.75V172.38H516.26V180.83H514.99V163.41Z" fill="black"/>
<path d="M533.5 163.41V180.82H532.23V163.41H533.5Z" fill="black"/>
<path d="M551.12 172.17H543.37V179.76H552V180.82H542.1V163.41H551.56V164.47H543.37V171.11H551.12V172.17Z" fill="black"/>
<path d="M558.78 178.78C559.92 179.55 561.41 180.07 563.1 180.07C565.91 180.07 567.62 178.57 567.62 176.43C567.62 174.44 566.61 173.3 563.69 172.37C560.2 171.26 558.81 169.84 558.81 167.57C558.81 165.01 561.01 163.1 564.21 163.1C566.04 163.1 567.41 163.54 568.08 163.98L567.59 165.04C567.1 164.7 565.86 164.14 564.15 164.14C561.02 164.14 560.04 166.02 560.04 167.4C560.04 169.26 561.15 170.32 563.97 171.22C567.15 172.25 568.85 173.49 568.85 176.31C568.85 178.71 567.09 181.14 562.93 181.14C561.28 181.14 559.34 180.62 558.28 179.85L558.78 178.78Z" fill="black"/>
<path d="M589.59 180.82V173.38L583.49 163.41H584.94L588.17 168.84C589 170.23 589.64 171.27 590.29 172.48H590.34C590.91 171.37 591.66 170.2 592.51 168.84L595.89 163.41H597.34L590.86 173.44V180.83H589.59V180.82Z" fill="black"/>
<path d="M619.05 171.88C619.05 177.9 614.76 181.13 610.21 181.13C605.25 181.13 601.56 177.44 601.56 172.35C601.56 166.87 605.43 163.1 610.4 163.1C615.51 163.1 619.05 166.87 619.05 171.88ZM602.88 172.3C602.88 176.41 605.69 180.1 610.27 180.1C614.87 180.1 617.73 176.61 617.73 171.99C617.73 168.22 615.28 164.14 610.34 164.14C605.38 164.13 602.88 168.01 602.88 172.3Z" fill="black"/>
<path d="M627.64 163.41V173.46C627.64 178.19 629.99 180.07 632.89 180.07C636.12 180.07 638.42 178.05 638.42 173.46V163.41H639.69V173.36C639.69 178.97 636.51 181.14 632.82 181.14C629.44 181.14 626.39 179.18 626.39 173.49V163.41H627.64Z" fill="black"/>
<path d="M160.45 174.7L158.05 180.82H156.73L163.76 163.41H165L171.98 180.82H170.66L168.21 174.7H160.45ZM167.79 173.64L165.34 167.52C164.88 166.35 164.64 165.61 164.38 164.76H164.33C164.07 165.64 163.79 166.41 163.37 167.44L160.89 173.64H167.79Z" stroke="black" stroke-width="0.1"/>
<path d="M189.09 163.59C190.2 163.41 191.62 163.25 193.22 163.25C195.54 163.25 197.22 163.82 198.26 164.8C199.14 165.62 199.65 166.76 199.65 168.18C199.65 169.71 199.19 170.89 198.31 171.77C197.12 173.01 195.13 173.65 192.83 173.65C191.93 173.65 191.07 173.62 190.35 173.39V180.8H189.08V163.59H189.09ZM190.36 172.3C191.08 172.53 192.01 172.61 192.99 172.61C196.45 172.61 198.39 171.04 198.39 168.35C198.39 165.35 196.01 164.32 193.2 164.32C191.88 164.32 190.88 164.45 190.36 164.55V172.3V172.3Z" stroke="black" stroke-width="0.1"/>
<path d="M207.32 163.64C208.51 163.41 210.21 163.25 211.56 163.25C214.04 163.25 215.59 163.77 216.65 164.8C217.4 165.5 217.89 166.66 217.89 167.85C217.89 170.15 216.42 171.73 214.3 172.37V172.42C215.72 172.91 216.65 174.23 217.06 175.96C217.71 178.69 218.07 180.07 218.48 180.82H217.14C216.86 180.33 216.47 178.8 215.98 176.63C215.41 174.13 214.27 172.96 211.9 172.84H208.59V180.82H207.32V163.64V163.64ZM208.58 171.81H211.94C214.81 171.81 216.62 170.31 216.62 168.07C216.62 165.28 214.32 164.3 211.53 164.3C210.11 164.3 209.08 164.46 208.58 164.59V171.81V171.81Z" stroke="black" stroke-width="0.1"/>
<path d="M242.02 171.88C242.02 177.9 237.73 181.13 233.18 181.13C228.22 181.13 224.53 177.44 224.53 172.35C224.53 166.87 228.4 163.1 233.37 163.1C238.48 163.1 242.02 166.87 242.02 171.88ZM225.85 172.3C225.85 176.41 228.67 180.1 233.24 180.1C237.84 180.1 240.71 176.61 240.71 171.99C240.71 168.22 238.26 164.14 233.32 164.14C228.35 164.13 225.85 168.01 225.85 172.3Z" stroke="black" stroke-width="0.1"/>
<path d="M249.35 163.59C250.46 163.41 251.88 163.25 253.48 163.25C255.8 163.25 257.48 163.82 258.52 164.8C259.4 165.62 259.91 166.76 259.91 168.18C259.91 169.71 259.45 170.89 258.57 171.77C257.38 173.01 255.39 173.65 253.09 173.65C252.19 173.65 251.33 173.62 250.61 173.39V180.8H249.34V163.59H249.35ZM250.61 172.3C251.33 172.53 252.26 172.61 253.24 172.61C256.7 172.61 258.64 171.04 258.64 168.35C258.64 165.35 256.26 164.32 253.45 164.32C252.13 164.32 251.13 164.45 250.61 164.55V172.3Z" stroke="black" stroke-width="0.1"/>
<path d="M276.59 172.17H268.84V179.76H277.47V180.82H267.58V163.41H277.04V164.47H268.85V171.11H276.6V172.17H276.59Z" stroke="black" stroke-width="0.1"/>
<path d="M284.84 163.64C286.03 163.41 287.73 163.25 289.08 163.25C291.56 163.25 293.11 163.77 294.17 164.8C294.92 165.5 295.41 166.66 295.41 167.85C295.41 170.15 293.94 171.73 291.82 172.37V172.42C293.24 172.91 294.17 174.23 294.58 175.96C295.23 178.69 295.59 180.07 296 180.82H294.66C294.38 180.33 293.99 178.8 293.5 176.63C292.93 174.13 291.79 172.96 289.42 172.84H286.11V180.82H284.84V163.64V163.64ZM286.1 171.81H289.46C292.33 171.81 294.14 170.31 294.14 168.07C294.14 165.28 291.84 164.3 289.05 164.3C287.63 164.3 286.6 164.46 286.1 164.59V171.81V171.81Z" stroke="black" stroke-width="0.1"/>
<path d="M307.43 164.47H300.94V163.41H315.18V164.47H308.7V180.82H307.43V164.47Z" stroke="black" stroke-width="0.1"/>
<path d="M326.4 180.82V173.38L320.3 163.41H321.75L324.98 168.84C325.81 170.23 326.45 171.27 327.1 172.48H327.15C327.72 171.37 328.47 170.2 329.32 168.84L332.7 163.41H334.15L327.67 173.44V180.83H326.4V180.82Z" stroke="black" stroke-width="0.1"/>
<path d="M353.23 164.47H346.74V163.41H360.98V164.47H354.5V180.82H353.23V164.47Z" stroke="black" stroke-width="0.1"/>
<path d="M368.05 163.41V171.03H378.95V163.41H380.22V180.82H378.95V172.09H368.05V180.82H366.78V163.41H368.05Z" stroke="black" stroke-width="0.1"/>
<path d="M391.05 174.7L388.65 180.82H387.33L394.36 163.41H395.6L402.58 180.82H401.26L398.8 174.7H391.05ZM398.39 173.64L395.94 167.52C395.48 166.35 395.24 165.61 394.98 164.76H394.93C394.67 165.64 394.39 166.41 393.97 167.44L391.49 173.64H398.39Z" stroke="black" stroke-width="0.1"/>
<path d="M411.18 164.47H404.7V163.41H418.94V164.47H412.45V180.82H411.18V164.47Z" stroke="black" stroke-width="0.1"/>
<path d="M434.4 178.78C435.54 179.55 437.03 180.07 438.72 180.07C441.53 180.07 443.24 178.57 443.24 176.43C443.24 174.44 442.23 173.3 439.31 172.37C435.82 171.26 434.43 169.84 434.43 167.57C434.43 165.01 436.63 163.1 439.83 163.1C441.66 163.1 443.03 163.54 443.7 163.98L443.21 165.04C442.72 164.7 441.48 164.14 439.77 164.14C436.64 164.14 435.66 166.02 435.66 167.4C435.66 169.26 436.77 170.32 439.59 171.22C442.77 172.25 444.47 173.49 444.47 176.31C444.47 178.71 442.71 181.14 438.55 181.14C436.9 181.14 434.96 180.62 433.9 179.85L434.4 178.78Z" stroke="black" stroke-width="0.1"/>
<path d="M454.32 174.7L451.92 180.82H450.6L457.63 163.41H458.87L465.85 180.82H464.53L462.08 174.7H454.32ZM461.66 173.64L459.21 167.52C458.75 166.35 458.51 165.61 458.25 164.76H458.2C457.94 165.64 457.66 166.41 457.24 167.44L454.76 173.64H461.66Z" stroke="black" stroke-width="0.1"/>
<path d="M474.46 164.47H467.98V163.41H482.22V164.47H475.73V180.82H474.46V164.47Z" stroke="black" stroke-width="0.1"/>
<path d="M489.27 163.41V180.82H488V163.41H489.27Z" stroke="black" stroke-width="0.1"/>
<path d="M497.28 178.78C498.42 179.55 499.91 180.07 501.6 180.07C504.41 180.07 506.12 178.57 506.12 176.43C506.12 174.44 505.11 173.3 502.19 172.37C498.7 171.26 497.31 169.84 497.31 167.57C497.31 165.01 499.51 163.1 502.71 163.1C504.54 163.1 505.91 163.54 506.58 163.98L506.09 165.04C505.6 164.7 504.36 164.14 502.65 164.14C499.52 164.14 498.54 166.02 498.54 167.4C498.54 169.26 499.65 170.32 502.47 171.22C505.65 172.25 507.35 173.49 507.35 176.31C507.35 178.71 505.59 181.14 501.43 181.14C499.78 181.14 497.84 180.62 496.78 179.85L497.28 178.78Z" stroke="black" stroke-width="0.1"/>
<path d="M514.99 163.41H524.45V164.47H516.26V171.32H523.75V172.38H516.26V180.83H514.99V163.41Z" stroke="black" stroke-width="0.1"/>
<path d="M533.5 163.41V180.82H532.23V163.41H533.5Z" stroke="black" stroke-width="0.1"/>
<path d="M551.12 172.17H543.37V179.76H552V180.82H542.1V163.41H551.56V164.47H543.37V171.11H551.12V172.17Z" stroke="black" stroke-width="0.1"/>
<path d="M558.78 178.78C559.92 179.55 561.41 180.07 563.1 180.07C565.91 180.07 567.62 178.57 567.62 176.43C567.62 174.44 566.61 173.3 563.69 172.37C560.2 171.26 558.81 169.84 558.81 167.57C558.81 165.01 561.01 163.1 564.21 163.1C566.04 163.1 567.41 163.54 568.08 163.98L567.59 165.04C567.1 164.7 565.86 164.14 564.15 164.14C561.02 164.14 560.04 166.02 560.04 167.4C560.04 169.26 561.15 170.32 563.97 171.22C567.15 172.25 568.85 173.49 568.85 176.31C568.85 178.71 567.09 181.14 562.93 181.14C561.28 181.14 559.34 180.62 558.28 179.85L558.78 178.78Z" stroke="black" stroke-width="0.1"/>
<path d="M589.59 180.82V173.38L583.49 163.41H584.94L588.17 168.84C589 170.23 589.64 171.27 590.29 172.48H590.34C590.91 171.37 591.66 170.2 592.51 168.84L595.89 163.41H597.34L590.86 173.44V180.83H589.59V180.82Z" stroke="black" stroke-width="0.1"/>
<path d="M619.05 171.88C619.05 177.9 614.76 181.13 610.21 181.13C605.25 181.13 601.56 177.44 601.56 172.35C601.56 166.87 605.43 163.1 610.4 163.1C615.51 163.1 619.05 166.87 619.05 171.88ZM602.88 172.3C602.88 176.41 605.69 180.1 610.27 180.1C614.87 180.1 617.73 176.61 617.73 171.99C617.73 168.22 615.28 164.14 610.34 164.14C605.38 164.13 602.88 168.01 602.88 172.3Z" stroke="black" stroke-width="0.1"/>
<path d="M627.64 163.41V173.46C627.64 178.19 629.99 180.07 632.89 180.07C636.12 180.07 638.42 178.05 638.42 173.46V163.41H639.69V173.36C639.69 178.97 636.51 181.14 632.82 181.14C629.44 181.14 626.39 179.18 626.39 173.49V163.41H627.64Z" stroke="black" stroke-width="0.1"/>
</svg>
