<svg width="40" height="25" viewBox="0 0 40 25" fill="none" xmlns="http://www.w3.org/2000/svg" style="margin-right: 5px;margin-top: -5px;margin-left: -10px;">
<path d="M28.0727 3.88522C27.3242 3.59665 25.7903 2.51543 24.8365 2.00068C23.8822 1.48757 22.4994 1.23224 20.988 1.93377C20.6178 2.10535 20.2239 2.31306 19.8182 2.54457L19.1292 1.86234C19.0917 1.81473 18.1766 0.701484 16.6628 1.09309C15.9726 1.27165 15.3534 1.62015 14.7542 1.95593C14.2498 2.23917 13.773 2.50722 13.3134 2.63775C13.1379 2.68619 12.9735 2.73668 12.8188 2.78265C12.031 3.01704 11.5555 3.15661 10.9404 3.03757C10.3421 2.92181 10.0813 2.82617 10.0813 2.82617C9.82453 2.7256 9.5327 2.83479 9.40291 3.07821L4.54464 12.2612C4.44913 12.4406 4.46137 12.6606 4.57647 12.8281C4.61362 12.8815 5.49197 14.1614 6.29644 14.8896C7.67845 16.1403 8.46742 16.5779 8.50007 16.5956L8.53558 16.6206C8.29722 17.2121 8.4164 17.9161 8.89312 18.3976C9.45801 18.9649 10.3315 19.0269 10.967 18.5897C10.336 19.2592 10.3429 20.3142 10.9947 20.9689C11.658 21.6372 12.7335 21.6372 13.3963 20.9689L13.4832 20.8815C12.949 21.5551 12.9841 22.5357 13.604 23.1601C14.2689 23.8288 15.3481 23.8288 16.0142 23.1601L16.9334 22.2357C16.4583 22.8555 16.4966 23.7426 17.0615 24.3103C17.6738 24.9272 18.6676 24.9272 19.2811 24.3103L20.4945 23.0895L22.2333 24.4322C22.2867 24.4794 22.7459 24.8833 23.4385 24.8833C23.4753 24.8833 23.5112 24.8812 23.5475 24.8776C24.1247 24.8439 24.6622 24.5385 25.1479 23.9737C25.5826 23.4667 25.7516 22.9281 25.7744 22.4384C26.0128 22.5341 26.3332 22.6359 26.705 22.6359C27.1695 22.6359 27.7103 22.4778 28.2482 21.9532C28.694 21.5194 28.8727 21.0309 28.9009 20.5592C29.2127 20.707 29.5943 20.8182 30.0225 20.8182C30.4682 20.8182 30.9613 20.7004 31.4698 20.3823C32.1718 19.9455 32.591 19.4197 32.7155 18.8167C32.9261 17.9937 32.382 17.0335 32.0188 16.5118C32.4078 16.1867 32.8726 15.7709 33.2841 15.3276C34.5502 13.9586 35.0889 12.7567 35.0889 12.7567L30.1841 3.3717C30.1841 3.3717 28.958 4.22798 28.0727 3.88522ZM31.7127 18.4719C31.647 18.7592 31.3212 19.1866 30.8964 19.4513C29.8731 20.0888 29.1078 19.4238 29.0331 19.3532L27.3634 17.7088L27.3593 17.7129L25.132 15.3284C24.9259 15.108 24.5798 15.0977 24.361 15.3042C24.1418 15.5102 24.132 15.8587 24.3369 16.0779L27.4813 19.4464C27.5887 19.5946 28.1752 20.4985 27.4891 21.1676C26.9307 21.7098 26.4781 21.5657 25.9846 21.3367C25.8352 21.2673 25.5246 20.998 25.2234 20.7029L22.3051 17.577C22.099 17.3558 21.7533 17.3459 21.5345 17.5524C21.3141 17.7581 21.3047 18.1066 21.5096 18.329L24.0304 21.0247C24.0422 21.0411 24.0475 21.0612 24.0618 21.0768C24.1222 21.1429 24.2838 21.3149 24.4871 21.5132L24.5079 21.5354L24.483 21.5518C24.4879 21.56 25.0357 22.4241 24.321 23.2578C23.6239 24.0705 23.1022 23.7376 22.9598 23.6149L21.2035 22.2455C21.4892 21.6573 21.3957 20.9287 20.9088 20.4394C20.3451 19.8729 19.4635 19.8335 18.8484 20.308L19.4052 19.7481C20.0696 19.0786 20.0696 17.9941 19.4052 17.3238C18.7395 16.6547 17.6599 16.6547 16.9938 17.3238L16.1811 18.141C16.7089 17.4707 16.6734 16.497 16.0571 15.8768C15.3938 15.2126 14.3179 15.2126 13.6563 15.8768L12.78 16.7585C13.0571 16.1522 12.9526 15.415 12.4563 14.9163C11.8188 14.2747 10.7861 14.2747 10.149 14.9163L9.23679 15.7594L9.02128 15.6317C9.01434 15.628 8.31273 15.2368 7.02377 14.0731C6.52133 13.6179 5.95318 12.8712 5.66462 12.4739L10.1572 3.98744C10.3094 4.02602 10.5004 4.06912 10.7355 4.11428C11.6106 4.28299 12.28 4.08431 13.1269 3.83268C13.2783 3.78794 13.4375 3.74114 13.6081 3.69353C14.1918 3.52728 14.7477 3.21531 15.2861 2.91237C15.824 2.61107 16.3807 2.29828 16.9346 2.15379C17.7583 1.94198 18.2644 2.53062 18.2856 2.55483L18.8362 3.13608C16.1636 4.82114 13.3587 7.14039 13.3587 7.14039C13.3587 7.14039 11.8935 8.16743 12.711 9.33321C13.5612 10.5437 14.755 9.7084 14.755 9.7084L19.8635 6.89984C19.8635 6.89984 20.7068 6.57556 21.1578 6.62564C21.7712 6.6946 22.1455 7.10509 22.1455 7.10509L30.9253 16.901C31.4106 17.4174 31.7772 18.1907 31.7127 18.4719Z" fill="#EFBBB7"/>
<path d="M39.9355 10.9968L34.5266 0.856078C34.3834 0.58844 34.0536 0.488692 33.7883 0.631542L31.6969 1.74191C31.432 1.88517 31.332 2.21808 31.474 2.48448L36.8845 12.6256C37.027 12.8936 37.3572 12.993 37.6229 12.8509L39.7135 11.7402C39.9784 11.5961 40.0784 11.264 39.9355 10.9968Z" fill="#EFBBB7"/>
<path d="M8.22225 1.18678L6.1378 0.0628618C5.87168 -0.077525 5.54149 0.0250969 5.40108 0.292324L0.0632263 10.4724C-0.0775873 10.7405 0.0248597 11.0713 0.290569 11.2138L2.37502 12.3369C2.64154 12.4776 2.97092 12.3746 3.11133 12.1062L8.44959 1.92812C8.59041 1.65925 8.48837 1.32839 8.22225 1.18678Z" fill="#EFBBB7"/>
</svg>
