<svg width="32" height="25" viewBox="0 0 32 25" fill="none" xmlns="http://www.w3.org/2000/svg" style="margin-right: 5px;margin-top: -5px;">
<path d="M31.2492 7.29167H27.5073L26.4673 4.58333C25.3986 1.79883 22.8479 0 19.9685 0H12.031C9.15228 0 6.60103 1.79883 5.53165 4.58333L4.49165 7.29167H0.750399C0.262273 7.29167 -0.0958524 7.76953 0.0228977 8.26237L0.397898 9.82487C0.481023 10.1725 0.781024 10.4167 1.1254 10.4167H2.37978C1.5404 11.1803 0.999774 12.2904 0.999774 13.5417V16.6667C0.999774 17.7161 1.38477 18.6634 1.99978 19.3965V22.9167C1.99978 24.0671 2.8954 25 3.99978 25H5.99978C7.10416 25 7.99978 24.0671 7.99978 22.9167V20.8333H23.9998V22.9167C23.9998 24.0671 24.8954 25 25.9998 25H27.9998C29.1042 25 29.9998 24.0671 29.9998 22.9167V19.3965C30.6148 18.6641 30.9998 17.7168 30.9998 16.6667V13.5417C30.9998 12.2904 30.4592 11.1803 29.6204 10.4167H30.8748C31.2192 10.4167 31.5192 10.1725 31.6023 9.82487L31.9773 8.26237C32.0954 7.76953 31.7373 7.29167 31.2492 7.29167ZM9.24541 6.13086C9.70104 4.94466 10.8042 4.16667 12.031 4.16667H19.9685C21.1954 4.16667 22.2986 4.94466 22.7542 6.13086L23.9998 9.375H7.99978L9.24541 6.13086ZM5.99978 16.6536C4.79978 16.6536 3.99978 15.8229 3.99978 14.5768C3.99978 13.3307 4.79978 12.5 5.99978 12.5C7.19978 12.5 8.99978 14.3691 8.99978 15.6152C8.99978 16.8613 7.19978 16.6536 5.99978 16.6536ZM25.9998 16.6536C24.7998 16.6536 22.9998 16.8613 22.9998 15.6152C22.9998 14.3691 24.7998 12.5 25.9998 12.5C27.1998 12.5 27.9998 13.3307 27.9998 14.5768C27.9998 15.8229 27.1998 16.6536 25.9998 16.6536V16.6536Z" fill="#FF5F5F"/>
</svg>
