<svg width="26" height="25" viewBox="0 0 26 25" fill="none" xmlns="http://www.w3.org/2000/svg">
<rect class="rect-edit" x="1.84229" y="1" width="22.3158" height="22.3158" rx="3" fill="#FFBF34" stroke="#FFBF34" stroke-width="2"/>
<g clip-path="url(#clip0)">
<path d="M14.8188 7.02148L6.30494 15.5359C6.2621 15.5789 6.23117 15.6331 6.21645 15.6914L5.27277 19.4792C5.24454 19.5932 5.27805 19.7144 5.36126 19.7976C5.42422 19.8606 5.51001 19.8955 5.59776 19.8955C5.62464 19.8955 5.65213 19.8921 5.67889 19.8854L9.46661 18.9416C9.52564 18.9269 9.57927 18.8961 9.62211 18.8532L18.1367 10.3394L14.8188 7.02148Z" fill="white"/>
<path d="M20.2458 5.86006L19.2981 4.91233C18.6646 4.27892 17.5607 4.27953 16.928 4.91233L15.7671 6.07324L19.0849 9.39103L20.2458 8.23011C20.5622 7.91384 20.7365 7.49287 20.7365 7.04515C20.7365 6.59743 20.5622 6.17646 20.2458 5.86006Z" fill="white"/>
</g>
<defs>
<clipPath id="clip0">
<rect width="15.4737" height="15.4737" fill="white" transform="translate(5.26318 4.42188)"/>
</clipPath>
</defs>
</svg>
