<svg width="32" height="25" viewBox="0 0 32 25" fill="none" xmlns="http://www.w3.org/2000/svg" style="margin-right: 5px;margin-top: -5px;">
<path d="M28.5705 17.9835V7.01648C29.3503 6.86036 30.0634 6.54581 30.6373 6.10476C31.2111 5.66371 31.6254 5.11187 31.838 4.50528C32.0506 3.89868 32.054 3.25894 31.8478 2.651C31.6415 2.04307 31.2331 1.48859 30.6638 1.04388C30.0946 0.599161 29.3849 0.280045 28.6067 0.11893C27.8286 -0.0421843 27.0097 -0.039559 26.2332 0.12654C25.4568 0.292638 24.7505 0.616295 24.1859 1.06464C23.6214 1.513 23.2187 2.07007 23.0189 2.67931H8.9811C8.78126 2.07007 8.37863 1.513 7.81409 1.06464C7.24955 0.616295 6.54319 0.292638 5.76675 0.12654C4.99031 -0.039559 4.17144 -0.0421843 3.39328 0.11893C2.61513 0.280045 1.9054 0.599161 1.33616 1.04388C0.766926 1.48859 0.358457 2.04307 0.152231 2.651C-0.0539959 3.25894 -0.0506355 3.89868 0.161971 4.50528C0.374577 5.11187 0.788857 5.66371 1.36275 6.10476C1.93663 6.54581 2.64969 6.86036 3.42952 7.01648V17.9835C2.64969 18.1396 1.93663 18.4542 1.36275 18.8952C0.788857 19.3363 0.374577 19.8881 0.161971 20.4947C-0.0506355 21.1013 -0.0539959 21.7411 0.152231 22.349C0.358457 22.9569 0.766926 23.5114 1.33616 23.9561C1.9054 24.4008 2.61513 24.72 3.39328 24.8811C4.17144 25.0422 4.99031 25.0396 5.76675 24.8735C6.54319 24.7074 7.24955 24.3837 7.81409 23.9354C8.37863 23.487 8.78126 22.9299 8.9811 22.3207H23.0189C23.2187 22.9299 23.6214 23.487 24.1859 23.9354C24.7505 24.3837 25.4568 24.7074 26.2332 24.8735C27.0097 25.0396 27.8286 25.0422 28.6067 24.8811C29.3849 24.72 30.0946 24.4008 30.6638 23.9561C31.2331 23.5114 31.6415 22.9569 31.8478 22.349C32.054 21.7411 32.0506 21.1013 31.838 20.4947C31.6254 19.8881 31.2111 19.3363 30.6373 18.8952C30.0634 18.4542 29.3503 18.1396 28.5705 17.9835V17.9835ZM27.4277 1.78652C27.8798 1.78652 28.3216 1.89124 28.6975 2.08744C29.0733 2.28365 29.3663 2.56251 29.5393 2.88879C29.7123 3.21506 29.7575 3.57408 29.6693 3.92045C29.5812 4.26682 29.3635 4.58498 29.0438 4.83469C28.7242 5.08441 28.317 5.25447 27.8736 5.32337C27.4302 5.39227 26.9707 5.35691 26.5531 5.22176C26.1354 5.08661 25.7785 4.85775 25.5274 4.56411C25.2762 4.27048 25.1422 3.92525 25.1422 3.5721C25.1428 3.09868 25.3838 2.64478 25.8123 2.31003C26.2407 1.97527 26.8217 1.78699 27.4277 1.78652V1.78652ZM2.28674 3.5721C2.28674 3.21894 2.42079 2.87372 2.67193 2.58008C2.92307 2.28645 3.28002 2.05758 3.69765 1.92244C4.11528 1.78729 4.57482 1.75193 5.01817 1.82083C5.46153 1.88972 5.86877 2.05978 6.18841 2.3095C6.50805 2.55922 6.72573 2.87738 6.81391 3.22375C6.9021 3.57012 6.85684 3.92914 6.68385 4.25541C6.51087 4.58168 6.21792 4.86055 5.84207 5.05675C5.46621 5.25296 5.02432 5.35768 4.57229 5.35768C3.96631 5.35721 3.38532 5.16893 2.95683 4.83417C2.52834 4.49941 2.28735 4.04552 2.28674 3.5721V3.5721ZM4.57229 23.2135C4.12025 23.2135 3.67836 23.1088 3.30251 22.9126C2.92665 22.7164 2.63371 22.4375 2.46072 22.1112C2.28773 21.7849 2.24247 21.4259 2.33066 21.0796C2.41885 20.7332 2.63652 20.415 2.95616 20.1653C3.2758 19.9156 3.68305 19.7455 4.1264 19.6766C4.56975 19.6077 5.0293 19.6431 5.44693 19.7782C5.86455 19.9134 6.22151 20.1422 6.47265 20.4359C6.72378 20.7295 6.85783 21.0747 6.85783 21.4279C6.85722 21.9013 6.61623 22.3552 6.18774 22.69C5.75925 23.0247 5.17826 23.213 4.57229 23.2135V23.2135ZM23.0189 20.5351H8.9811C8.7764 19.9213 8.36582 19.3612 7.79171 18.9127C7.2176 18.4642 6.50074 18.1434 5.71506 17.9835V7.01648C6.50069 6.85647 7.21749 6.53568 7.79158 6.08717C8.36568 5.63867 8.77629 5.07866 8.9811 4.46489H23.0189C23.2236 5.07871 23.6342 5.63875 24.2083 6.08728C24.7824 6.5358 25.4993 6.85656 26.2849 7.01648V17.9835C25.4992 18.1434 24.7823 18.4641 24.2082 18.9126C23.634 19.3612 23.2235 19.9213 23.0189 20.5351ZM27.4277 23.2135C26.9757 23.2135 26.5338 23.1088 26.1579 22.9126C25.7821 22.7164 25.4891 22.4375 25.3161 22.1112C25.1432 21.7849 25.0979 21.4259 25.1861 21.0796C25.2743 20.7332 25.492 20.415 25.8116 20.1653C26.1312 19.9156 26.5385 19.7455 26.9818 19.6766C27.4252 19.6077 27.8847 19.6431 28.3024 19.7782C28.72 19.9134 29.0769 20.1422 29.3281 20.4359C29.5792 20.7295 29.7133 21.0747 29.7133 21.4279C29.7123 21.9012 29.4713 22.355 29.0428 22.6897C28.6144 23.0244 28.0336 23.2128 27.4277 23.2135V23.2135Z" fill="#FF5F5F"/>
</svg>
